<?xml version="1.0"?>
<svg xmlns="http://www.w3.org/2000/svg" viewBox="0 0 100 100">
    <g>
        <path d="M8.678 73.953l23.386-28.106a4.123 4.123 0 0 1 6.08-.283l.283.284 15.724 15.724h-6.364l32.555-32.555a4.5 4.5 0 0 1 6.364 6.364L54.153 67.936a4.5 4.5 0 0 1-6.364 0L32.064 52.211h6.364L10.322 75.597a1.167 1.167 0 0 1-1.644-1.644z" fill="#059669"/>
    </g>
    <g>
        <path d="M90.5 32.199l-2.667 19.918a3.363 3.363 0 0 1-6.667 0L78.5 32.199a6.052 6.052 0 0 1 5.197-6.803 6.052 6.052 0 0 1 6.803 6.803z" fill="#059669"/>
    </g>
    <g>
        <path d="M83.526 37.225l-19.918-2.667a3.363 3.363 0 0 1 0-6.667l19.918-2.667a6.053 6.053 0 1 1 0 12.001z" fill="#059669"/>
    </g>
    <metadata xmlns:d="https://loading.io/stock/"></metadata>
</svg>   